<svg xmlns="http://www.w3.org/2000/svg" xmlns:xlink="http://www.w3.org/1999/xlink" width="513" zoomAndPan="magnify" viewBox="0 0 384.75 383.999986" height="512" preserveAspectRatio="xMidYMid meet" version="1.0"><defs><clipPath id="e5bca93391"><path d="M 1 25 L 384.5 25 L 384.5 359.878906 L 1 359.878906 Z M 1 25 " clip-rule="nonzero"/></clipPath><clipPath id="9818e93945"><path d="M 210 166 L 227.503906 166 L 227.503906 184 L 210 184 Z M 210 166 " clip-rule="nonzero"/></clipPath></defs><g clip-path="url(#e5bca93391)"><path fill="#44afd9" d="M 267.933594 25.273438 C 263.761719 25.273438 259.746094 26.835938 256.71875 29.863281 L 247.035156 39.546875 L 267.933594 60.441406 C 275.257812 67.769531 277.296875 78.761719 273.03125 87.964844 C 276.246094 86.46875 279.65625 85.925781 283.222656 85.925781 C 289.785156 85.925781 295.964844 88.445312 300.550781 93.0625 L 334.699219 127.210938 C 340.816406 133.296875 344.097656 141.261719 344.128906 149.894531 C 344.160156 158.558594 340.847656 166.683594 334.699219 172.828125 L 304.882812 202.648438 L 291.125 216.664062 L 162.6875 344.851562 L 164.214844 346.378906 C 167.242188 349.40625 171.382812 351.222656 175.683594 351.222656 C 179.984375 351.222656 183.871094 349.660156 186.894531 346.632812 L 380.316406 153.207031 C 383.339844 150.179688 384.902344 146.292969 384.902344 141.992188 C 384.902344 137.691406 383.339844 133.550781 380.316406 130.527344 L 345.914062 96.375 C 343.269531 93.730469 339.160156 93.191406 335.972656 95.101562 C 330.015625 98.671875 322.054688 97.714844 317.117188 92.808594 C 312.082031 87.773438 311.128906 80.097656 314.824219 73.949219 C 316.734375 70.734375 316.191406 66.65625 313.546875 64.011719 L 279.402344 29.863281 C 276.375 26.835938 272.105469 25.273438 267.933594 25.273438 Z M 211.105469 33.429688 C 206.933594 33.429688 202.664062 34.734375 199.636719 37.761719 L 169.566406 67.832031 C 170.078125 68.152344 170.648438 68.40625 171.097656 68.851562 L 176.957031 74.714844 C 180.144531 77.898438 180.144531 82.996094 176.957031 86.183594 C 175.363281 87.773438 173.199219 88.476562 171.097656 88.476562 C 168.992188 88.476562 167.082031 87.773438 165.488281 86.183594 L 159.628906 80.320312 C 159.183594 79.875 158.925781 79.300781 158.609375 78.792969 L 6.21875 231.191406 C -0.0273438 237.464844 -0.0585938 247.628906 6.21875 253.871094 L 40.621094 288.019531 C 43.265625 290.664062 47.34375 291.238281 50.558594 289.292969 C 56.515625 285.695312 64.480469 286.648438 69.417969 291.585938 C 74.449219 296.621094 75.40625 304.296875 71.710938 310.445312 C 69.800781 313.664062 70.339844 317.742188 72.984375 320.386719 L 107.132812 354.535156 C 110.160156 357.5625 114.300781 359.375 118.601562 359.375 C 122.902344 359.375 126.785156 357.816406 129.8125 354.789062 L 282.203125 202.136719 C 281.789062 201.851562 281.3125 201.753906 280.929688 201.371094 L 275.324219 195.511719 C 272.136719 192.324219 272.136719 187.230469 275.324219 184.042969 C 278.507812 180.859375 283.605469 180.859375 286.789062 184.042969 L 292.652344 189.90625 C 293.035156 190.285156 293.128906 190.765625 293.417969 191.179688 L 323.230469 161.363281 C 326.257812 158.304688 327.820312 154.195312 327.820312 149.894531 C 327.820312 145.625 326.257812 141.675781 323.230469 138.679688 L 289.085938 104.53125 C 286.441406 101.886719 282.109375 101.3125 278.890625 103.257812 C 272.933594 106.824219 264.972656 105.902344 260.035156 100.964844 C 255 95.929688 254.042969 88.253906 257.738281 82.105469 C 259.652344 78.886719 259.109375 74.808594 256.464844 72.167969 L 222.316406 37.761719 C 219.292969 34.734375 215.277344 33.429688 211.105469 33.429688 Z M 188.425781 89.496094 C 190.496094 89.496094 192.691406 90.195312 194.285156 91.789062 L 199.890625 97.652344 C 203.078125 100.835938 203.078125 105.933594 199.890625 109.117188 C 198.300781 110.710938 196.386719 111.667969 194.285156 111.667969 C 192.183594 111.667969 190.015625 110.710938 188.425781 109.117188 L 182.5625 103.511719 C 179.378906 100.328125 179.378906 94.976562 182.5625 91.789062 C 184.15625 90.195312 186.355469 89.496094 188.425781 89.496094 Z M 211.613281 112.6875 C 213.683594 112.6875 215.628906 113.386719 217.222656 114.980469 L 223.082031 120.839844 C 226.269531 124.027344 226.269531 129.125 223.082031 132.308594 C 221.488281 133.902344 219.324219 134.601562 217.222656 134.601562 C 215.117188 134.601562 213.207031 133.902344 211.613281 132.308594 L 205.753906 126.449219 C 202.566406 123.261719 202.566406 118.164062 205.753906 114.980469 C 207.347656 113.386719 209.542969 112.6875 211.613281 112.6875 Z M 234.550781 135.621094 C 236.621094 135.621094 238.820312 136.324219 240.410156 137.917969 L 246.015625 143.777344 C 249.203125 146.964844 249.203125 152.058594 246.015625 155.246094 C 244.425781 156.839844 242.511719 157.792969 240.410156 157.792969 C 238.308594 157.792969 236.144531 156.839844 234.550781 155.246094 L 228.6875 149.640625 C 225.503906 146.453125 225.503906 141.101562 228.6875 137.917969 C 230.28125 136.324219 232.480469 135.621094 234.550781 135.621094 Z M 257.738281 158.8125 C 259.808594 158.8125 261.753906 159.515625 263.347656 161.105469 L 269.207031 166.96875 C 272.394531 170.152344 272.394531 175.25 269.207031 178.4375 C 267.613281 180.03125 265.449219 180.730469 263.347656 180.730469 C 261.242188 180.730469 259.332031 180.03125 257.738281 178.4375 L 251.878906 172.574219 C 248.691406 169.390625 248.691406 164.292969 251.878906 161.105469 C 253.472656 159.515625 255.667969 158.8125 257.738281 158.8125 Z M 257.738281 158.8125 " fill-opacity="1" fill-rule="nonzero"/></g><path fill="#0b1f3d" d="M 80.507812 191.59375 C 84.390625 216.910156 106.054688 236.5625 129.804688 243.789062 C 153.652344 251.042969 181.839844 248.671875 203.515625 236.070312 C 208.84375 232.972656 213.90625 229.164062 218.167969 224.703125 C 221.964844 220.730469 224.824219 215.484375 223.449219 209.863281 C 221.332031 201.210938 210.949219 197.277344 203.304688 195.222656 C 193.222656 192.511719 182.886719 192.296875 172.519531 193.15625 C 157.074219 194.4375 141.992188 198.441406 127.953125 205.003906 C 103.742188 216.316406 81.871094 236.21875 70.34375 260.53125 C 68.871094 263.644531 67.554688 266.769531 66.523438 270.058594 C 65.589844 273.046875 70.011719 274.878906 71.550781 272.179688 C 77.648438 261.464844 83.847656 250.84375 91.953125 241.484375 C 100.121094 232.058594 109.519531 223.804688 120.125 217.21875 C 131.910156 209.898438 144.886719 204.769531 158.453125 201.890625 C 165.496094 200.394531 172.664062 199.523438 179.863281 199.320312 C 184.109375 199.203125 189.222656 199.300781 192.9375 199.882812 C 200.015625 200.984375 208.824219 202.820312 214.113281 207.601562 C 215.308594 208.683594 216.148438 209.773438 216.480469 210.714844 C 216.980469 212.128906 216.988281 213.109375 216.53125 214.621094 C 215.746094 217.234375 213.671875 219.210938 211.734375 221.03125 C 209.710938 222.929688 207.566406 224.675781 205.289062 226.257812 C 186.617188 239.210938 161.519531 242.773438 139.460938 238.492188 C 117.25 234.1875 96.625 219.71875 87.152344 198.832031 C 85.9375 196.160156 84.8125 193.457031 83.917969 190.65625 C 83.21875 188.429688 80.171875 189.382812 80.507812 191.59375 Z M 80.507812 191.59375 " fill-opacity="1" fill-rule="nonzero"/><path fill="#0b1f3d" d="M 181.226562 212.703125 C 183.382812 215.253906 187.277344 215.617188 190.320312 214.738281 C 193.339844 213.859375 197.128906 211.167969 197.296875 207.710938 C 197.371094 206.21875 196.4375 204.753906 194.84375 204.714844 C 193.042969 204.671875 192.230469 206.40625 191.183594 207.554688 C 189.019531 209.925781 186.007812 210.113281 183.046875 209.570312 C 181.179688 209.226562 179.992188 211.238281 181.226562 212.703125 Z M 181.226562 212.703125 " fill-opacity="1" fill-rule="nonzero"/><path fill="#0b1f3d" d="M 193.121094 181.6875 C 193.476562 178.925781 192.210938 175.996094 191.453125 173.382812 C 190.632812 170.523438 189.769531 167.632812 188.652344 164.878906 C 188.066406 163.433594 186.984375 162.832031 185.433594 163.050781 C 185.226562 163.078125 184.996094 163.214844 184.808594 163.316406 C 183.808594 163.84375 183.285156 165.195312 183.605469 166.269531 C 184.484375 169.265625 185.679688 172.199219 186.871094 175.082031 C 187.921875 177.632812 188.75 180.695312 190.785156 182.65625 C 191.722656 183.550781 192.972656 182.816406 193.121094 181.6875 Z M 193.121094 181.6875 " fill-opacity="1" fill-rule="nonzero"/><path fill="#0b1f3d" d="M 205.273438 177.917969 C 206.144531 174.75 207.046875 171.585938 207.867188 168.40625 C 208.585938 165.628906 210.355469 161.800781 209.390625 159.011719 C 208.792969 157.292969 206.476562 156.363281 205.101562 157.878906 C 203.042969 160.140625 203.132812 164.046875 202.679688 166.976562 C 202.175781 170.253906 201.753906 173.542969 201.300781 176.824219 C 200.953125 179.359375 204.546875 180.554688 205.273438 177.917969 Z M 205.273438 177.917969 " fill-opacity="1" fill-rule="nonzero"/><g clip-path="url(#9818e93945)"><path fill="#0b1f3d" d="M 213.253906 182.929688 C 216.039062 180.691406 218.769531 178.4375 221.425781 176.042969 C 223.484375 174.1875 227.476562 171.796875 227.300781 168.683594 C 227.246094 167.671875 226.523438 166.949219 225.511719 166.894531 C 222.394531 166.710938 219.992188 170.714844 218.140625 172.757812 C 215.746094 175.410156 213.480469 178.132812 211.242188 180.917969 C 210.082031 182.351562 211.816406 184.085938 213.253906 182.929688 Z M 213.253906 182.929688 " fill-opacity="1" fill-rule="nonzero"/></g></svg>