<svg xmlns="http://www.w3.org/2000/svg" xmlns:xlink="http://www.w3.org/1999/xlink" width="513" zoomAndPan="magnify" viewBox="0 0 384.75 383.999986" height="512" preserveAspectRatio="xMidYMid meet" version="1.0"><defs><clipPath id="5ea730af25"><path d="M 7 42 L 359 42 L 359 383.875 L 7 383.875 Z M 7 42 " clip-rule="nonzero"/></clipPath><clipPath id="2707b75118"><path d="M 2.296875 45.347656 L 353.21875 45.347656 L 353.21875 383.875 L 2.296875 383.875 Z M 2.296875 45.347656 " clip-rule="nonzero"/></clipPath><clipPath id="6d92f54590"><path d="M 330 46.292969 L 373.5 46.292969 L 373.5 89.277344 L 330 89.277344 Z M 330 46.292969 " clip-rule="nonzero"/></clipPath><clipPath id="ee4d5f5d94"><path d="M 268 0.125 L 313 0.125 L 313 44 L 268 44 Z M 268 0.125 " clip-rule="nonzero"/></clipPath><clipPath id="ffb4b4fc09"><path d="M 267 0.125 L 312 0.125 L 312 44 L 267 44 Z M 267 0.125 " clip-rule="nonzero"/></clipPath></defs><g clip-path="url(#5ea730af25)"><path fill="#fcc11b" d="M 8.660156 247.878906 C 13.601562 229.515625 33.175781 218.121094 49.890625 207.8125 C 72.21875 194.035156 104.984375 177.652344 102.804688 148.707031 C 100.261719 114.933594 94.199219 81.789062 93.945312 47.785156 C 93.929688 46.007812 94.082031 43.917969 95.574219 42.957031 C 96.699219 42.234375 98.160156 42.445312 99.464844 42.734375 C 127.484375 48.988281 144.058594 75.324219 165.644531 91.824219 C 192.816406 112.59375 221.433594 107.476562 250.652344 92.988281 C 273.066406 81.875 296.238281 68.4375 321.167969 70.449219 C 311.332031 97.351562 301.492188 124.253906 291.65625 151.15625 C 288.074219 160.945312 284.4375 171.175781 285.589844 181.535156 C 287.054688 194.6875 295.910156 205.652344 304.398438 215.796875 C 321.105469 235.765625 337.816406 255.738281 354.527344 275.707031 C 357.804688 279.625 360.863281 286.121094 356.710938 289.09375 C 355.226562 290.160156 353.28125 290.257812 351.457031 290.316406 C 320.496094 291.324219 282.636719 298.699219 252.371094 293.625 C 204.933594 285.671875 193.207031 354.414062 176.417969 384.601562 C 173.804688 389.300781 169.0625 394.628906 164.105469 392.554688 C 161.519531 391.46875 160.125 388.703125 158.953125 386.152344 C 146.761719 359.695312 134.429688 332.75 130.484375 303.882812 C 129.253906 294.867188 128.710938 285.308594 123.738281 277.691406 C 113.3125 261.722656 90.359375 262.390625 71.300781 262.3125 C 49.785156 262.222656 28.285156 258.84375 7.777344 252.320312 C 7.976562 250.792969 8.273438 249.316406 8.660156 247.878906 " fill-opacity="1" fill-rule="nonzero"/></g><g clip-path="url(#2707b75118)"><path fill="#fcea10" d="M 3.214844 250.550781 C 8.207031 232.207031 27.8125 220.863281 44.554688 210.601562 C 66.921875 196.886719 99.734375 180.59375 97.632812 151.640625 C 95.183594 117.863281 89.210938 84.703125 89.050781 50.695312 C 89.042969 48.917969 89.199219 46.832031 90.695312 45.871094 C 91.816406 45.152344 93.28125 45.367188 94.582031 45.660156 C 122.585938 51.992188 139.089844 78.375 160.628906 94.933594 C 187.742188 115.777344 216.375 110.738281 245.628906 96.332031 C 268.074219 85.277344 291.285156 71.90625 316.210938 73.988281 C 306.300781 100.859375 296.386719 127.734375 286.476562 154.609375 C 282.867188 164.390625 279.203125 174.609375 280.328125 184.972656 C 281.757812 198.128906 290.578125 209.121094 299.039062 219.289062 C 315.695312 239.304688 332.351562 259.320312 349.003906 279.332031 C 352.273438 283.261719 355.3125 289.765625 351.152344 292.730469 C 349.664062 293.789062 347.722656 293.878906 345.894531 293.9375 C 314.933594 294.859375 277.054688 302.128906 246.800781 296.96875 C 199.386719 288.886719 187.472656 357.597656 170.597656 387.738281 C 167.972656 392.429688 163.214844 397.742188 158.265625 395.65625 C 155.679688 394.566406 154.296875 391.796875 153.128906 389.242188 C 141.011719 362.75 128.753906 335.769531 124.886719 306.894531 C 123.679688 297.871094 123.164062 288.316406 118.210938 280.683594 C 107.832031 264.683594 84.875 265.292969 65.816406 265.160156 C 44.300781 265.015625 22.808594 261.574219 2.320312 254.992188 C 2.523438 253.46875 2.824219 251.988281 3.214844 250.550781 " fill-opacity="1" fill-rule="nonzero"/></g><path fill="#fccc10" d="M 64.121094 364.5 C 60.492188 365.539062 56.550781 363.367188 53.085938 361.570312 C 48.457031 359.175781 42.316406 355.265625 37.617188 358.597656 C 32.128906 362.488281 27.113281 366.914062 21.351562 370.4375 C 21.050781 370.621094 20.683594 370.808594 20.363281 370.65625 C 20.125 370.535156 20.011719 370.265625 19.929688 370.011719 C 18.125 364.597656 20.910156 359.074219 21.507812 353.707031 C 22.261719 346.949219 18.460938 342.59375 13.007812 339.097656 C 8.820312 336.410156 4.164062 333.835938 1.953125 329.378906 C 7.539062 328.300781 13.121094 327.226562 18.703125 326.152344 C 20.738281 325.761719 22.847656 325.332031 24.496094 324.074219 C 26.582031 322.480469 27.542969 319.847656 28.398438 317.363281 C 30.085938 312.472656 31.773438 307.578125 33.460938 302.6875 C 33.792969 301.726562 34.582031 300.539062 35.515625 300.945312 C 35.847656 301.085938 36.0625 301.410156 36.261719 301.714844 C 39.601562 306.886719 44.730469 312.589844 46.964844 318.269531 C 50.464844 327.171875 63.359375 322.132812 70.214844 321.90625 C 71.28125 321.871094 72.671875 322.132812 72.828125 323.191406 C 72.90625 323.742188 72.578125 324.265625 72.265625 324.726562 C 69.011719 329.511719 65.691406 334.371094 61.183594 338 C 59.773438 339.132812 58.203125 340.203125 57.417969 341.832031 C 55.765625 345.242188 58.230469 349.085938 60.167969 352.34375 C 62.355469 356.019531 63.980469 360.03125 64.96875 364.195312 C 64.6875 364.316406 64.40625 364.417969 64.121094 364.5 " fill-opacity="1" fill-rule="nonzero"/><path fill="#fcea10" d="M 62.167969 364.988281 C 58.539062 366.027344 54.597656 363.855469 51.132812 362.058594 C 46.503906 359.664062 40.363281 355.753906 35.660156 359.089844 C 30.175781 362.976562 25.15625 367.402344 19.398438 370.925781 C 19.097656 371.109375 18.726562 371.300781 18.410156 371.144531 C 18.171875 371.027344 18.058594 370.753906 17.976562 370.503906 C 16.171875 365.085938 18.957031 359.5625 19.554688 354.195312 C 20.304688 347.4375 16.507812 343.082031 11.050781 339.585938 C 6.867188 336.902344 2.210938 334.324219 0 329.867188 C 5.582031 328.792969 11.167969 327.714844 16.75 326.640625 C 18.78125 326.25 20.894531 325.824219 22.539062 324.566406 C 24.628906 322.96875 25.585938 320.335938 26.445312 317.851562 C 28.132812 312.960938 29.820312 308.066406 31.507812 303.175781 C 31.835938 302.214844 32.628906 301.027344 33.558594 301.433594 C 33.894531 301.578125 34.109375 301.898438 34.304688 302.203125 C 37.644531 307.378906 42.773438 313.078125 45.007812 318.757812 C 48.511719 327.660156 61.40625 322.625 68.261719 322.394531 C 69.328125 322.359375 70.71875 322.625 70.871094 323.683594 C 70.953125 324.234375 70.625 324.753906 70.3125 325.214844 C 67.058594 330 63.734375 334.863281 59.230469 338.488281 C 57.820312 339.621094 56.25 340.691406 55.464844 342.316406 C 53.8125 345.730469 56.277344 349.574219 58.214844 352.832031 C 60.402344 356.507812 62.027344 360.519531 63.015625 364.683594 C 62.734375 364.808594 62.453125 364.910156 62.167969 364.988281 " fill-opacity="1" fill-rule="nonzero"/><g clip-path="url(#6d92f54590)"><path fill="#fccc10" d="M 368.15625 85.460938 C 365.929688 86.097656 363.511719 84.765625 361.386719 83.664062 C 358.546875 82.195312 354.777344 79.796875 351.890625 81.839844 C 348.527344 84.226562 345.449219 86.945312 341.914062 89.105469 C 341.730469 89.21875 341.5 89.332031 341.304688 89.238281 C 341.160156 89.167969 341.089844 89 341.039062 88.847656 C 339.933594 85.519531 341.640625 82.132812 342.007812 78.839844 C 342.46875 74.691406 340.136719 72.019531 336.792969 69.875 C 334.222656 68.226562 331.367188 66.644531 330.011719 63.910156 C 333.4375 63.25 336.863281 62.589844 340.289062 61.929688 C 341.535156 61.691406 342.832031 61.429688 343.839844 60.65625 C 345.121094 59.679688 345.710938 58.0625 346.234375 56.539062 C 347.273438 53.535156 348.308594 50.535156 349.34375 47.53125 C 349.546875 46.941406 350.03125 46.214844 350.601562 46.464844 C 350.804688 46.550781 350.9375 46.75 351.0625 46.9375 C 353.109375 50.109375 356.257812 53.609375 357.628906 57.09375 C 359.777344 62.554688 367.691406 59.464844 371.894531 59.328125 C 372.550781 59.304688 373.402344 59.464844 373.5 60.113281 C 373.546875 60.453125 373.347656 60.773438 373.15625 61.054688 C 371.15625 63.992188 369.117188 66.976562 366.351562 69.199219 C 365.488281 69.894531 364.523438 70.550781 364.042969 71.550781 C 363.03125 73.644531 364.542969 76.003906 365.730469 78.003906 C 367.074219 80.257812 368.070312 82.71875 368.675781 85.273438 C 368.503906 85.351562 368.332031 85.414062 368.15625 85.460938 " fill-opacity="1" fill-rule="nonzero"/></g><path fill="#fcea10" d="M 366.957031 85.761719 C 364.730469 86.398438 362.3125 85.066406 360.183594 83.964844 C 357.34375 82.492188 353.578125 80.09375 350.691406 82.140625 C 347.328125 84.527344 344.25 87.242188 340.714844 89.40625 C 340.527344 89.519531 340.300781 89.632812 340.109375 89.539062 C 339.960938 89.464844 339.890625 89.300781 339.839844 89.144531 C 338.734375 85.820312 340.441406 82.433594 340.808594 79.140625 C 341.273438 74.992188 338.9375 72.320312 335.59375 70.175781 C 333.023438 68.527344 330.164062 66.945312 328.808594 64.210938 C 332.238281 63.550781 335.664062 62.890625 339.089844 62.230469 C 340.335938 61.992188 341.632812 61.730469 342.640625 60.957031 C 343.921875 59.976562 344.511719 58.363281 345.035156 56.839844 C 346.074219 53.835938 347.105469 50.835938 348.140625 47.832031 C 348.347656 47.242188 348.832031 46.515625 349.402344 46.761719 C 349.609375 46.851562 349.738281 47.046875 349.863281 47.238281 C 351.910156 50.410156 355.058594 53.90625 356.429688 57.394531 C 358.578125 62.855469 366.488281 59.765625 370.695312 59.625 C 371.351562 59.605469 372.203125 59.765625 372.300781 60.414062 C 372.347656 60.753906 372.148438 61.074219 371.953125 61.355469 C 369.957031 64.292969 367.917969 67.273438 365.152344 69.5 C 364.289062 70.195312 363.328125 70.851562 362.84375 71.851562 C 361.832031 73.945312 363.34375 76.304688 364.53125 78.304688 C 365.871094 80.558594 366.871094 83.019531 367.476562 85.574219 C 367.304688 85.652344 367.132812 85.710938 366.957031 85.761719 " fill-opacity="1" fill-rule="nonzero"/><g clip-path="url(#ee4d5f5d94)"><path fill="#fccc10" d="M 307.144531 39.386719 C 304.917969 40.019531 302.496094 38.691406 300.371094 37.589844 C 297.53125 36.117188 293.761719 33.71875 290.878906 35.765625 C 287.511719 38.152344 284.433594 40.867188 280.898438 43.027344 C 280.714844 43.140625 280.488281 43.257812 280.292969 43.160156 C 280.144531 43.089844 280.078125 42.921875 280.027344 42.769531 C 278.917969 39.445312 280.628906 36.058594 280.996094 32.761719 C 281.457031 28.617188 279.125 25.945312 275.777344 23.796875 C 273.210938 22.148438 270.351562 20.570312 268.996094 17.835938 C 272.421875 17.175781 275.847656 16.515625 279.273438 15.855469 C 280.523438 15.613281 281.816406 15.351562 282.828125 14.582031 C 284.109375 13.601562 284.695312 11.988281 285.222656 10.460938 C 286.257812 7.460938 287.292969 4.457031 288.328125 1.457031 C 288.53125 0.867188 289.019531 0.140625 289.589844 0.386719 C 289.792969 0.472656 289.925781 0.671875 290.046875 0.859375 C 292.097656 4.035156 295.242188 7.53125 296.613281 11.015625 C 298.765625 16.480469 306.675781 13.386719 310.882812 13.25 C 311.535156 13.226562 312.390625 13.390625 312.484375 14.039062 C 312.535156 14.378906 312.332031 14.695312 312.140625 14.980469 C 310.144531 17.914062 308.105469 20.898438 305.339844 23.125 C 304.476562 23.820312 303.511719 24.476562 303.027344 25.476562 C 302.015625 27.566406 303.527344 29.925781 304.71875 31.925781 C 306.058594 34.183594 307.054688 36.644531 307.664062 39.199219 C 307.488281 39.273438 307.316406 39.335938 307.144531 39.386719 " fill-opacity="1" fill-rule="nonzero"/></g><g clip-path="url(#ffb4b4fc09)"><path fill="#fcea10" d="M 305.945312 39.6875 C 303.71875 40.320312 301.296875 38.988281 299.171875 37.886719 C 296.332031 36.417969 292.566406 34.019531 289.679688 36.066406 C 286.3125 38.449219 283.234375 41.167969 279.699219 43.328125 C 279.515625 43.441406 279.289062 43.558594 279.09375 43.460938 C 278.949219 43.390625 278.878906 43.222656 278.828125 43.070312 C 277.71875 39.746094 279.429688 36.355469 279.796875 33.0625 C 280.257812 28.917969 277.925781 26.242188 274.578125 24.097656 C 272.011719 22.449219 269.152344 20.871094 267.796875 18.136719 C 271.222656 17.472656 274.648438 16.816406 278.074219 16.15625 C 279.324219 15.914062 280.617188 15.652344 281.628906 14.878906 C 282.910156 13.902344 283.496094 12.285156 284.023438 10.761719 C 285.058594 7.761719 286.09375 4.757812 287.128906 1.753906 C 287.332031 1.167969 287.820312 0.4375 288.390625 0.6875 C 288.59375 0.773438 288.726562 0.972656 288.847656 1.160156 C 290.898438 4.335938 294.042969 7.832031 295.414062 11.316406 C 297.5625 16.777344 305.476562 13.6875 309.679688 13.550781 C 310.335938 13.527344 311.191406 13.6875 311.285156 14.339844 C 311.335938 14.679688 311.132812 14.996094 310.941406 15.277344 C 308.945312 18.214844 306.90625 21.199219 304.140625 23.425781 C 303.277344 24.117188 302.3125 24.777344 301.828125 25.773438 C 300.816406 27.867188 302.328125 30.226562 303.515625 32.226562 C 304.859375 34.480469 305.855469 36.941406 306.460938 39.5 C 306.292969 39.574219 306.117188 39.636719 305.945312 39.6875 " fill-opacity="1" fill-rule="nonzero"/></g><path fill="#1d1d1b" d="M 189.34375 162.242188 C 189.34375 167.679688 184.941406 172.085938 179.511719 172.085938 C 174.078125 172.085938 169.675781 167.679688 169.675781 162.242188 C 169.675781 156.804688 174.078125 152.398438 179.511719 152.398438 C 184.941406 152.398438 189.34375 156.804688 189.34375 162.242188 " fill-opacity="1" fill-rule="nonzero"/><path fill="#1d1d1b" d="M 127.945312 190.804688 C 127.945312 196.242188 123.542969 200.648438 118.109375 200.648438 C 112.679688 200.648438 108.277344 196.242188 108.277344 190.804688 C 108.277344 185.367188 112.679688 180.960938 118.109375 180.960938 C 123.542969 180.960938 127.945312 185.367188 127.945312 190.804688 " fill-opacity="1" fill-rule="nonzero"/><path fill="#1d1d1b" d="M 185.667969 141.152344 C 184.492188 138.589844 183.171875 136.148438 181.632812 133.898438 C 180.058594 131.683594 178.300781 129.617188 176.148438 128.128906 C 174.03125 126.605469 171.546875 125.6875 168.898438 125.511719 C 167.59375 125.558594 166.210938 125.4375 164.894531 125.820312 L 162.851562 126.171875 C 162.191406 126.382812 161.515625 126.566406 160.828125 126.742188 C 163.167969 125.136719 165.972656 124.246094 168.902344 123.953125 C 171.875 123.75 174.894531 124.765625 177.316406 126.472656 C 179.734375 128.21875 181.617188 130.546875 182.953125 133.089844 C 184.292969 135.632812 185.289062 138.339844 185.667969 141.152344 " fill-opacity="1" fill-rule="nonzero"/><path fill="#1d1d1b" d="M 105.703125 169.011719 C 106.078125 166.199219 107.074219 163.492188 108.414062 160.953125 C 109.753906 158.410156 111.632812 156.078125 114.050781 154.332031 C 116.472656 152.628906 119.492188 151.609375 122.464844 151.8125 C 125.398438 152.109375 128.199219 153 130.539062 154.601562 C 129.851562 154.429688 129.175781 154.242188 128.515625 154.035156 L 126.472656 153.679688 C 125.15625 153.300781 123.777344 153.417969 122.46875 153.371094 C 119.820312 153.546875 117.335938 154.464844 115.21875 155.988281 C 113.070312 157.480469 111.308594 159.542969 109.738281 161.761719 C 108.199219 164.007812 106.875 166.449219 105.703125 169.011719 " fill-opacity="1" fill-rule="nonzero"/><path fill="#1d1d1b" d="M 171.167969 251.859375 C 176.898438 248.742188 182.210938 245.320312 187.0625 241.523438 C 191.851562 237.660156 196.140625 233.355469 199.257812 228.367188 C 199.964844 227.085938 200.980469 225.949219 201.472656 224.558594 L 203.238281 220.523438 C 204.019531 217.691406 204.96875 214.867188 205.203125 211.839844 C 205.816406 208.855469 205.578125 205.785156 205.664062 202.644531 C 205.648438 199.5 205.015625 196.390625 204.957031 193.050781 C 206.371094 195.949219 207.859375 198.957031 208.777344 202.148438 C 209.457031 205.386719 210.414062 208.6875 210.207031 212.125 C 210.546875 215.574219 209.632812 218.945312 209.03125 222.375 C 207.84375 225.640625 206.605469 228.921875 204.667969 231.824219 C 200.871094 237.644531 195.671875 242.347656 189.855469 245.664062 C 184.050781 248.972656 177.71875 251.277344 171.167969 251.859375 " fill-opacity="1" fill-rule="nonzero"/><path fill="#1d1d1b" d="M 194.210938 188.15625 C 197.335938 190.617188 200.84375 192.441406 204.414062 192.039062 C 206.179688 191.863281 207.890625 191.226562 209.558594 190.339844 C 211.21875 189.433594 212.726562 188.21875 214.375 187.03125 C 213.867188 187.898438 213.246094 188.691406 212.667969 189.542969 C 211.9375 190.246094 211.246094 191.015625 210.429688 191.660156 C 208.804688 192.96875 206.761719 193.835938 204.59375 194.085938 C 202.414062 194.292969 200.1875 193.714844 198.417969 192.578125 C 196.640625 191.453125 195.148438 189.960938 194.210938 188.15625 " fill-opacity="1" fill-rule="nonzero"/></svg>