<svg xmlns="http://www.w3.org/2000/svg" xmlns:xlink="http://www.w3.org/1999/xlink" width="500" zoomAndPan="magnify" viewBox="0 0 375 374.999991" height="500" preserveAspectRatio="xMidYMid meet" version="1.0"><path fill="#5f2b2a" d="M 365.0625 356.25 L 356.25 365.0625 C 351.367188 369.996094 343.503906 369.996094 338.550781 365.0625 L 280.492188 307.007812 L 287.5 287.5 L 307.007812 280.492188 L 365.0625 338.550781 C 369.996094 343.433594 369.996094 351.367188 365.0625 356.25 " fill-opacity="1" fill-rule="nonzero"/><path fill="#a4becd" d="M 307.007812 280.492188 L 280.492188 307.007812 L 258.933594 285.425781 L 285.425781 258.933594 L 307.007812 280.492188 " fill-opacity="1" fill-rule="nonzero"/><path fill="#c0d6e4" d="M 318.75 162.5 C 318.75 248.777344 248.777344 318.75 162.5 318.75 C 76.21875 318.75 6.25 248.777344 6.25 162.5 C 6.25 76.21875 76.21875 6.25 162.5 6.25 C 248.777344 6.25 318.75 76.21875 318.75 162.5 " fill-opacity="1" fill-rule="nonzero"/><path fill="#4a7ec8" d="M 293.75 162.5 C 293.75 234.984375 234.984375 293.75 162.5 293.75 C 90.015625 293.75 31.25 234.984375 31.25 162.5 C 31.25 90.015625 90.015625 31.25 162.5 31.25 C 234.984375 31.25 293.75 90.015625 293.75 162.5 " fill-opacity="1" fill-rule="nonzero"/><path fill="#23467c" d="M 268.75 139.304688 C 268.75 140.867188 268.503906 142.382812 267.992188 143.75 L 151.195312 218.140625 L 106.25 218.75 C 73.363281 211.132812 48.363281 193.140625 31.6875 172.3125 C 31.371094 169.066406 31.25 165.820312 31.25 162.5 C 31.25 137.304688 38.304688 113.816406 50.632812 93.871094 C 52.125 102.757812 56.492188 108.933594 62.253906 112.9375 C 67.992188 116.941406 75 118.75 81.6875 118.75 L 212.5 118.75 C 237.816406 118.75 253.734375 122.996094 261.132812 126.757812 C 265.867188 129.125 268.75 134.058594 268.75 139.304688 " fill-opacity="1" fill-rule="nonzero"/><path fill="#e6f0f7" d="M 267.992188 143.75 C 264.304688 155.371094 245.066406 208.933594 158.765625 217.992188 L 151.195312 218.140625 L 157.300781 182.566406 C 173.949219 177.125 191.675781 168.140625 200.511719 155.003906 C 205.445312 147.828125 213.941406 143.75 222.679688 143.75 L 267.992188 143.75 " fill-opacity="1" fill-rule="nonzero"/><path fill="#254981" d="M 163.914062 213.035156 C 163.792969 213.207031 163.597656 213.378906 163.476562 213.550781 C 163.476562 213.550781 134.8125 243.75 99.316406 243.75 C 95.164062 243.75 92.480469 239.332031 94.359375 235.472656 C 97.046875 229.957031 102.195312 216.625 103.296875 198.753906 C 103.90625 188.84375 111.792969 181.25 121.140625 181.25 L 150.707031 181.25 C 166.285156 181.25 174.65625 201.050781 163.914062 213.035156 " fill-opacity="1" fill-rule="nonzero"/><path fill="#23467c" d="M 151.636719 89.867188 C 151.488281 92.382812 149.121094 94.1875 146.558594 93.675781 C 136.546875 91.675781 111.179688 83.933594 106.25 55.808594 C 106.25 55.808594 101.488281 53.5625 91.941406 51.878906 C 110.9375 39.671875 133.25 32.300781 157.25 31.371094 C 153.636719 39.183594 147.558594 47.4375 138.011719 51.246094 C 151.316406 61.742188 152 81.128906 151.636719 89.867188 " fill-opacity="1" fill-rule="nonzero"/><path fill="#1d1e1f" d="M 360.667969 351.832031 L 351.832031 360.667969 C 349.488281 363.035156 345.386719 363.035156 343.015625 360.667969 L 289.332031 307.007812 L 307.007812 289.332031 L 360.667969 343.015625 C 361.839844 344.1875 362.5 345.75 362.5 347.410156 C 362.5 349.097656 361.863281 350.660156 360.667969 351.832031 Z M 285.816406 268.164062 L 298.167969 280.515625 L 280.515625 298.167969 L 268.164062 285.816406 C 274.488281 280.371094 280.371094 274.488281 285.816406 268.164062 Z M 12.5 162.5 C 12.5 79.785156 79.785156 12.5 162.5 12.5 C 245.214844 12.5 312.5 79.785156 312.5 162.5 C 312.5 245.214844 245.214844 312.5 162.5 312.5 C 79.785156 312.5 12.5 245.214844 12.5 162.5 Z M 293.652344 258.300781 C 313.328125 231.421875 325 198.289062 325 162.5 C 325 72.898438 252.097656 0 162.5 0 C 72.898438 0 0 72.898438 0 162.5 C 0 252.097656 72.898438 325 162.5 325 C 198.289062 325 231.421875 313.328125 258.300781 293.652344 L 334.179688 369.507812 C 337.695312 373.046875 342.40625 375 347.4375 375 C 352.441406 375 357.152344 373.046875 360.691406 369.507812 L 369.507812 360.691406 C 373.046875 357.152344 375 352.441406 375 347.410156 C 375 342.429688 373.046875 337.695312 369.507812 334.179688 L 293.652344 258.300781 " fill-opacity="1" fill-rule="nonzero"/><path fill="#1d1e1f" d="M 175 150 L 181.25 150 C 184.691406 150 187.5 147.191406 187.5 143.75 C 187.5 140.308594 184.691406 137.5 181.25 137.5 L 175 137.5 C 171.558594 137.5 168.75 140.308594 168.75 143.75 C 168.75 147.191406 171.558594 150 175 150 " fill-opacity="1" fill-rule="nonzero"/><path fill="#1d1e1f" d="M 49.730469 108.933594 C 57.226562 120.554688 70.53125 125 81.6875 125 L 212.5 125 C 241.625 125 254.90625 130.613281 258.324219 132.347656 C 260.328125 133.347656 261.742188 135.277344 262.253906 137.5 L 222.679688 137.5 C 211.570312 137.5 201.367188 142.722656 195.3125 151.511719 C 188.867188 161.132812 175.367188 169.726562 157.273438 175.953125 C 155.175781 175.339844 152.976562 175 150.707031 175 L 121.140625 175 C 108.445312 175 97.851562 185.277344 97.070312 198.363281 C 96.824219 202.292969 96.335938 205.90625 95.777344 209.277344 C 67.578125 199.976562 49.070312 183.445312 37.890625 169.945312 C 37.742188 167.457031 37.5 165.015625 37.5 162.5 C 37.5 143.308594 41.96875 125.195312 49.730469 108.933594 Z M 173.242188 209.570312 C 173.949219 207.761719 174.488281 205.882812 174.78125 203.953125 C 198.65625 196.214844 213.160156 186.375 221.167969 179.273438 C 224.242188 176.511719 228.246094 175 232.445312 175 L 242.308594 175 C 228.929688 189.28125 207.46875 203.269531 173.242188 209.570312 Z M 173.289062 191.285156 C 173.09375 190.746094 172.925781 190.183594 172.703125 189.648438 C 171.875 187.816406 170.824219 186.15625 169.675781 184.617188 C 182.957031 179.175781 197.386719 170.847656 205.664062 158.542969 C 209.277344 153.269531 215.796875 150 222.679688 150 L 258.933594 150 C 257.25 153.785156 254.980469 158.054688 252.097656 162.5 L 232.445312 162.5 C 225.171875 162.5 218.1875 165.160156 212.839844 169.945312 C 207.226562 174.925781 194.847656 183.933594 173.289062 191.285156 Z M 109.546875 199.121094 C 109.9375 192.601562 115.039062 187.5 121.140625 187.5 L 150.707031 187.5 C 155.296875 187.5 159.253906 190.210938 161.277344 194.75 C 162.988281 198.582031 163.355469 204.296875 159.277344 208.863281 C 159.226562 208.910156 159.203125 208.910156 159.203125 208.933594 C 159.203125 208.933594 159.179688 208.960938 159.15625 209.007812 C 159.082031 209.082031 158.960938 209.203125 158.863281 209.351562 C 157.152344 211.082031 131.394531 236.9375 100.316406 237.5 C 102.5625 232.691406 108.347656 218.601562 109.546875 199.121094 Z M 134.128906 56.152344 C 143.871094 63.84375 145.507812 77.90625 145.457031 87.035156 C 135.300781 84.546875 116.308594 76.953125 112.402344 54.734375 C 112.058594 52.734375 110.742188 51.023438 108.910156 50.171875 C 108.835938 50.121094 108.691406 50.046875 108.472656 49.949219 C 119.773438 44.480469 132.03125 40.722656 144.921875 38.890625 C 142.429688 41.578125 139.402344 43.945312 135.691406 45.457031 C 133.617188 46.265625 132.128906 48.144531 131.8125 50.34375 C 131.492188 52.5625 132.371094 54.785156 134.128906 56.152344 Z M 234.546875 45.433594 C 231.589844 43.601562 227.734375 44.53125 225.925781 47.460938 C 224.121094 50.390625 225.023438 54.246094 227.953125 56.054688 C 265.257812 79.078125 287.5 118.871094 287.5 162.5 C 287.5 231.421875 231.421875 287.5 162.5 287.5 C 103.492188 287.5 54.054688 246.363281 40.992188 191.308594 C 53.394531 202.78125 70.410156 214.234375 92.992188 221.460938 C 91.285156 227.148438 89.550781 231.054688 88.71875 232.761719 C 86.890625 236.546875 87.132812 240.917969 89.332031 244.457031 C 91.527344 247.925781 95.238281 250 99.316406 250 C 127.050781 250 150.390625 233.398438 161.449219 223.925781 C 243.433594 214.550781 267.457031 166.160156 273.875 145.898438 C 274.632812 143.847656 275 141.625 275 139.304688 C 275 131.664062 270.652344 124.511719 263.964844 121.191406 C 258.835938 118.578125 243.554688 112.5 212.5 112.5 L 81.6875 112.5 C 71.824219 112.5 60.667969 107.789062 57.398438 95.117188 C 66.722656 80.589844 78.929688 68.089844 93.261719 58.496094 C 96.582031 59.179688 99.121094 59.886719 100.828125 60.449219 C 107.789062 89.257812 134.03125 97.558594 145.359375 99.828125 C 146.042969 99.949219 146.726562 100.023438 147.410156 100.023438 C 149.753906 100.023438 152.050781 99.242188 153.929688 97.777344 C 156.273438 95.921875 157.714844 93.164062 157.859375 90.136719 C 158.277344 80.710938 157.324219 64.648438 148.167969 52.710938 C 153.246094 49.023438 157.542969 43.871094 161.035156 37.574219 C 161.523438 37.574219 161.988281 37.5 162.5 37.5 C 176.78125 37.5 190.796875 39.890625 204.148438 44.628906 C 207.398438 45.777344 210.984375 44.089844 212.132812 40.820312 C 213.304688 37.574219 211.597656 34.007812 208.347656 32.859375 C 193.628906 27.636719 178.222656 25 162.5 25 C 86.671875 25 25 86.667969 25 162.5 C 25 238.328125 86.671875 300 162.5 300 C 238.328125 300 300 238.328125 300 162.5 C 300 114.5 275.535156 70.726562 234.546875 45.433594 " fill-opacity="1" fill-rule="nonzero"/></svg>